<svg xmlns="http://www.w3.org/2000/svg" xmlns:xlink="http://www.w3.org/1999/xlink" version="1.1" data-diagram-type="CLASS" style="width:821px;height:513px;background:#FFFFFF;" width="821px" height="513px" viewBox="0 0 821 513" zoomAndPan="magnify" preserveAspectRatio="none" contentStyleType="text/css"><?plantuml 1.2026.8?><defs/><g font-family="sans-serif" lengthAdjust="spacing"><!--class User--><g class="entity" data-qualified-name="User" id="ent0001" data-source-line="10"><rect x="12.53" y="138.51" width="78.644" height="113.953" fill="#F1F1F1" style="stroke:#181818;stroke-width:0.5;" rx="2.5" ry="2.5"/><ellipse cx="34.855" cy="154.51" rx="11" ry="11" fill="#ADD1B2" style="stroke:#181818;stroke-width:1;"/><path d="M37.328,160.653 Q36.747,160.952 36.108,161.101 Q35.469,161.251 34.763,161.251 Q32.257,161.251 30.937,159.599 Q29.617,157.947 29.617,154.826 Q29.617,151.697 30.937,150.045 Q32.257,148.393 34.763,148.393 Q35.469,148.393 36.116,148.542 Q36.764,148.692 37.328,148.99 L37.328,151.713 Q36.698,151.132 36.104,150.862 Q35.511,150.593 34.88,150.593 Q33.535,150.593 32.85,151.659 Q32.165,152.726 32.165,154.826 Q32.165,156.918 32.85,157.984 Q33.535,159.051 34.88,159.051 Q35.511,159.051 36.104,158.781 Q36.698,158.511 37.328,157.93 Z " fill="#000"/><text x="50.483" y="159.801" fill="#000" font-size="14" textLength="30.365">User</text><line x1="13.53" y1="170.51" x2="90.174" y2="170.51" style="stroke:#181818;stroke-width:0.5;"/><text x="18.53" y="188.045" fill="#000" font-size="14" textLength="42.198">userId</text><text x="18.53" y="204.533" fill="#000" font-size="14" textLength="66.644">username</text><text x="18.53" y="221.022" fill="#000" font-size="14" textLength="36.695">email</text><text x="18.53" y="237.51" fill="#000" font-size="14" textLength="64.743">password</text><line x1="13.53" y1="244.463" x2="90.174" y2="244.463" style="stroke:#181818;stroke-width:0.5;"/></g><!--class Genre--><g class="entity" data-qualified-name="Genre" id="ent0002" data-source-line="17"><rect x="7" y="7" width="89.69" height="80.977" fill="#F1F1F1" style="stroke:#181818;stroke-width:0.5;" rx="2.5" ry="2.5"/><ellipse cx="29.9" cy="23" rx="11" ry="11" fill="#ADD1B2" style="stroke:#181818;stroke-width:1;"/><path d="M32.374,29.143 Q31.793,29.442 31.153,29.591 Q30.514,29.741 29.809,29.741 Q27.302,29.741 25.982,28.089 Q24.662,26.437 24.662,23.316 Q24.662,20.187 25.982,18.535 Q27.302,16.883 29.809,16.883 Q30.514,16.883 31.162,17.032 Q31.809,17.182 32.374,17.48 L32.374,20.203 Q31.743,19.622 31.149,19.352 Q30.556,19.083 29.925,19.083 Q28.58,19.083 27.895,20.149 Q27.211,21.216 27.211,23.316 Q27.211,25.408 27.895,26.474 Q28.58,27.541 29.925,27.541 Q30.556,27.541 31.149,27.271 Q31.743,27.001 32.374,26.42 Z " fill="#000"/><text x="45.656" y="28.291" fill="#000" font-size="14" textLength="40.134">Genre</text><line x1="8" y1="39" x2="95.69" y2="39" style="stroke:#181818;stroke-width:0.5;"/><text x="13" y="56.535" fill="#000" font-size="14" textLength="51.591">genreId</text><text x="13" y="73.023" fill="#000" font-size="14" textLength="77.69">genreName</text><line x1="8" y1="79.977" x2="95.69" y2="79.977" style="stroke:#181818;stroke-width:0.5;"/></g><!--class UserDislike--><g class="entity" data-qualified-name="UserDislike" id="ent0003" data-source-line="22"><rect x="126.69" y="7" width="108.111" height="80.977" fill="#F1F1F1" style="stroke:#181818;stroke-width:0.5;" rx="2.5" ry="2.5"/><ellipse cx="141.69" cy="23" rx="11" ry="11" fill="#ADD1B2" style="stroke:#181818;stroke-width:1;"/><path d="M144.163,29.143 Q143.582,29.442 142.943,29.591 Q142.304,29.741 141.598,29.741 Q139.091,29.741 137.772,28.089 Q136.452,26.437 136.452,23.316 Q136.452,20.187 137.772,18.535 Q139.091,16.883 141.598,16.883 Q142.304,16.883 142.951,17.032 Q143.599,17.182 144.163,17.48 L144.163,20.203 Q143.532,19.622 142.939,19.352 Q142.345,19.083 141.714,19.083 Q140.37,19.083 139.685,20.149 Q139,21.216 139,23.316 Q139,25.408 139.685,26.474 Q140.37,27.541 141.714,27.541 Q142.345,27.541 142.939,27.271 Q143.532,27.001 144.163,26.42 Z " fill="#000"/><text x="155.69" y="28.291" fill="#000" font-size="14" textLength="76.111">UserDislike</text><line x1="127.69" y1="39" x2="233.801" y2="39" style="stroke:#181818;stroke-width:0.5;"/><text x="132.69" y="56.535" fill="#000" font-size="14" textLength="42.198">userId</text><text x="132.69" y="73.023" fill="#000" font-size="14" textLength="51.591">genreId</text><line x1="127.69" y1="79.977" x2="233.801" y2="79.977" style="stroke:#181818;stroke-width:0.5;"/></g><!--class Movie--><g class="entity" data-qualified-name="Movie" id="ent0004" data-source-line="27"><rect x="512" y="130.26" width="100.525" height="130.441" fill="#F1F1F1" style="stroke:#181818;stroke-width:0.5;" rx="2.5" ry="2.5"/><ellipse cx="539.948" cy="146.26" rx="11" ry="11" fill="#ADD1B2" style="stroke:#181818;stroke-width:1;"/><path d="M542.422,152.403 Q541.841,152.702 541.201,152.851 Q540.562,153.001 539.857,153.001 Q537.35,153.001 536.03,151.349 Q534.71,149.697 534.71,146.576 Q534.71,143.447 536.03,141.795 Q537.35,140.143 539.857,140.143 Q540.562,140.143 541.21,140.292 Q541.857,140.442 542.422,140.74 L542.422,143.463 Q541.791,142.882 541.197,142.612 Q540.604,142.343 539.973,142.343 Q538.628,142.343 537.943,143.409 Q537.259,144.476 537.259,146.576 Q537.259,148.668 537.943,149.734 Q538.628,150.801 539.973,150.801 Q540.604,150.801 541.197,150.531 Q541.791,150.261 542.422,149.68 Z " fill="#000"/><text x="556.826" y="151.551" fill="#000" font-size="14" textLength="39.751">Movie</text><line x1="513" y1="162.26" x2="611.525" y2="162.26" style="stroke:#181818;stroke-width:0.5;"/><text x="518" y="179.795" fill="#000" font-size="14" textLength="88.525">tmdbMovieId</text><text x="518" y="196.283" fill="#000" font-size="14" textLength="26.366">title</text><text x="518" y="212.772" fill="#000" font-size="14" textLength="58.871">synopsis</text><text x="518" y="229.26" fill="#000" font-size="14" textLength="40.161">rating</text><text x="518" y="245.748" fill="#000" font-size="14" textLength="79.297">releaseDate</text><line x1="513" y1="252.701" x2="611.525" y2="252.701" style="stroke:#181818;stroke-width:0.5;"/></g><!--class Watchlist--><g class="entity" data-qualified-name="Watchlist" id="ent0005" data-source-line="35"><rect x="326.77" y="69.24" width="93.271" height="64.488" fill="#F1F1F1" style="stroke:#181818;stroke-width:0.5;" rx="2.5" ry="2.5"/><ellipse cx="341.77" cy="85.24" rx="11" ry="11" fill="#ADD1B2" style="stroke:#181818;stroke-width:1;"/><path d="M344.243,91.383 Q343.662,91.682 343.023,91.831 Q342.384,91.981 341.678,91.981 Q339.171,91.981 337.852,90.329 Q336.532,88.677 336.532,85.556 Q336.532,82.427 337.852,80.775 Q339.171,79.123 341.678,79.123 Q342.384,79.123 343.031,79.272 Q343.679,79.422 344.243,79.72 L344.243,82.443 Q343.612,81.862 343.019,81.592 Q342.425,81.323 341.794,81.323 Q340.45,81.323 339.765,82.389 Q339.08,83.456 339.08,85.556 Q339.08,87.648 339.765,88.714 Q340.45,89.781 341.794,89.781 Q342.425,89.781 343.019,89.511 Q343.612,89.241 344.243,88.66 Z " fill="#000"/><text x="355.77" y="90.531" fill="#000" font-size="14" textLength="61.271">Watchlist</text><line x1="327.77" y1="101.24" x2="419.041" y2="101.24" style="stroke:#181818;stroke-width:0.5;"/><text x="332.77" y="118.775" fill="#000" font-size="14" textLength="72.926">watchlistId</text><line x1="327.77" y1="125.728" x2="419.041" y2="125.728" style="stroke:#181818;stroke-width:0.5;"/></g><!--class WatchHistory--><g class="entity" data-qualified-name="WatchHistory" id="ent0006" data-source-line="39"><rect x="312.82" y="163.24" width="121.154" height="64.488" fill="#F1F1F1" style="stroke:#181818;stroke-width:0.5;" rx="2.5" ry="2.5"/><ellipse cx="327.82" cy="179.24" rx="11" ry="11" fill="#ADD1B2" style="stroke:#181818;stroke-width:1;"/><path d="M330.293,185.383 Q329.712,185.682 329.073,185.831 Q328.434,185.981 327.728,185.981 Q325.221,185.981 323.902,184.329 Q322.582,182.677 322.582,179.556 Q322.582,176.427 323.902,174.775 Q325.221,173.123 327.728,173.123 Q328.434,173.123 329.081,173.272 Q329.729,173.422 330.293,173.72 L330.293,176.443 Q329.662,175.862 329.069,175.592 Q328.475,175.323 327.844,175.323 Q326.5,175.323 325.815,176.389 Q325.13,177.456 325.13,179.556 Q325.13,181.648 325.815,182.714 Q326.5,183.781 327.844,183.781 Q328.475,183.781 329.069,183.511 Q329.662,183.241 330.293,182.66 Z " fill="#000"/><text x="341.82" y="184.531" fill="#000" font-size="14" textLength="89.154">WatchHistory</text><line x1="313.82" y1="195.24" x2="432.974" y2="195.24" style="stroke:#181818;stroke-width:0.5;"/><text x="318.82" y="212.775" fill="#000" font-size="14" textLength="59.596">historyId</text><line x1="313.82" y1="219.728" x2="432.974" y2="219.728" style="stroke:#181818;stroke-width:0.5;"/></g><!--class Playlist--><g class="entity" data-qualified-name="Playlist" id="ent0007" data-source-line="43"><rect x="131.09" y="241" width="99.315" height="80.977" fill="#F1F1F1" style="stroke:#181818;stroke-width:0.5;" rx="2.5" ry="2.5"/><ellipse cx="155.098" cy="257" rx="11" ry="11" fill="#ADD1B2" style="stroke:#181818;stroke-width:1;"/><path d="M157.571,263.143 Q156.99,263.442 156.351,263.591 Q155.712,263.741 155.006,263.741 Q152.499,263.741 151.179,262.089 Q149.86,260.437 149.86,257.316 Q149.86,254.187 151.179,252.535 Q152.499,250.883 155.006,250.883 Q155.712,250.883 156.359,251.032 Q157.007,251.182 157.571,251.48 L157.571,254.203 Q156.94,253.622 156.347,253.352 Q155.753,253.083 155.122,253.083 Q153.778,253.083 153.093,254.149 Q152.408,255.216 152.408,257.316 Q152.408,259.408 153.093,260.474 Q153.778,261.541 155.122,261.541 Q155.753,261.541 156.347,261.271 Q156.94,261.001 157.571,260.42 Z " fill="#000"/><text x="171.1" y="262.291" fill="#000" font-size="14" textLength="47.298">Playlist</text><line x1="132.09" y1="273" x2="229.405" y2="273" style="stroke:#181818;stroke-width:0.5;"/><text x="137.09" y="290.535" fill="#000" font-size="14" textLength="61.216">playlistId</text><text x="137.09" y="307.023" fill="#000" font-size="14" textLength="87.315">playlistName</text><line x1="132.09" y1="313.977" x2="229.405" y2="313.977" style="stroke:#181818;stroke-width:0.5;"/></g><!--class MovieInPlaylist--><g class="entity" data-qualified-name="MovieInPlaylist" id="ent0008" data-source-line="48"><rect x="307.52" y="257.24" width="131.771" height="64.488" fill="#F1F1F1" style="stroke:#181818;stroke-width:0.5;" rx="2.5" ry="2.5"/><ellipse cx="322.52" cy="273.24" rx="11" ry="11" fill="#ADD1B2" style="stroke:#181818;stroke-width:1;"/><path d="M324.993,279.383 Q324.412,279.682 323.773,279.831 Q323.134,279.981 322.428,279.981 Q319.921,279.981 318.602,278.329 Q317.282,276.677 317.282,273.556 Q317.282,270.427 318.602,268.775 Q319.921,267.123 322.428,267.123 Q323.134,267.123 323.781,267.272 Q324.429,267.422 324.993,267.72 L324.993,270.443 Q324.362,269.862 323.769,269.592 Q323.175,269.323 322.544,269.323 Q321.2,269.323 320.515,270.389 Q319.83,271.456 319.83,273.556 Q319.83,275.648 320.515,276.714 Q321.2,277.781 322.544,277.781 Q323.175,277.781 323.769,277.511 Q324.362,277.241 324.993,276.66 Z " fill="#000"/><text x="336.52" y="278.531" fill="#000" font-size="14" textLength="99.771">MovieInPlaylist</text><line x1="308.52" y1="289.24" x2="438.291" y2="289.24" style="stroke:#181818;stroke-width:0.5;"/><text x="313.52" y="306.775" fill="#000" font-size="14" textLength="88.525">tmdbMovieId</text><line x1="308.52" y1="313.728" x2="438.291" y2="313.728" style="stroke:#181818;stroke-width:0.5;"/></g><!--class Mood--><g class="entity" data-qualified-name="Mood" id="ent0009" data-source-line="52"><rect x="137.57" y="352.02" width="86.361" height="146.93" fill="#F1F1F1" style="stroke:#181818;stroke-width:0.5;" rx="2.5" ry="2.5"/><ellipse cx="159.901" cy="368.02" rx="11" ry="11" fill="#EB937F" style="stroke:#181818;stroke-width:1;"/><path d="M163.516,374.52 L155.796,374.52 L155.796,362.127 L163.516,362.127 L163.516,364.285 L158.245,364.285 L158.245,366.958 L163.018,366.958 L163.018,369.116 L158.245,369.116 L158.245,372.362 L163.516,372.362 Z " fill="#000"/><text x="175.531" y="373.311" fill="#000" font-size="14" textLength="38.069">Mood</text><line x1="138.57" y1="384.02" x2="222.931" y2="384.02" style="stroke:#181818;stroke-width:0.5;"/><text x="143.57" y="401.555" fill="#000" font-size="14" textLength="44.146">HAPPY</text><text x="143.57" y="418.043" fill="#000" font-size="14" textLength="27.686">SAD</text><text x="143.57" y="434.532" fill="#000" font-size="14" textLength="56.998">EXCITED</text><text x="143.57" y="451.02" fill="#000" font-size="14" textLength="60.402">RELAXED</text><text x="143.57" y="467.508" fill="#000" font-size="14" textLength="74.361">ROMANTIC</text><text x="143.57" y="483.997" fill="#000" font-size="14" textLength="44.461">SCARY</text><line x1="138.57" y1="490.95" x2="222.931" y2="490.95" style="stroke:#181818;stroke-width:0.5;"/></g><g class="entity" data-qualified-name="GMN20" id="ent0021" data-source-line="77"><path d="M642.52,159.86 L642.52,191.49 L612.7,195.49 L642.52,199.49 L642.52,231.102 A0,0 0 0 0 642.52,231.102 L806.457,231.102 A0,0 0 0 0 806.457,231.102 L806.457,169.86 L796.457,159.86 L642.52,159.86 A0,0 0 0 0 642.52,159.86" style="stroke:#181818;stroke-width:0.5;" fill="#FEFFDD"/><path d="M796.457,159.86 L796.457,169.86 L806.457,169.86 L796.457,159.86" style="stroke:#181818;stroke-width:0.5;" fill="#FEFFDD"/><text x="648.52" y="177.428" fill="#000" font-size="13" textLength="142.937">Movie data is retrieved</text><text x="648.52" y="192.739" fill="#000" font-size="13" textLength="99.093">from TMDB API.</text><text x="648.52" y="208.049" fill="#000" font-size="13" textLength="92.466">It is not stored</text><text x="648.52" y="223.36" fill="#000" font-size="13" textLength="102.172">in our database.</text></g><g class="entity" data-qualified-name="GMN23" id="ent0024" data-source-line="84"><path d="M264.8,405.17 L264.8,421.49 L223.98,425.49 L264.8,429.49 L264.8,445.791 A0,0 0 0 0 264.8,445.791 L481.993,445.791 A0,0 0 0 0 481.993,445.791 L481.993,415.17 L471.993,405.17 L264.8,405.17 A0,0 0 0 0 264.8,405.17" style="stroke:#181818;stroke-width:0.5;" fill="#FEFFDD"/><path d="M471.993,405.17 L471.993,415.17 L481.993,415.17 L471.993,405.17" style="stroke:#181818;stroke-width:0.5;" fill="#FEFFDD"/><text x="270.8" y="422.738" fill="#000" font-size="13" textLength="150.979">Fixed list in application.</text><text x="270.8" y="438.049" fill="#000" font-size="13" textLength="196.193">Not stored as a database table.</text></g><!--link User to UserDislike--><g class="link" data-entity-1="ent0001" data-entity-2="ent0003" id="lnk10" data-source-line="61" data-link-type="association"><path d="M91.49,144.69 C129.27,144.69 180.46,144.69 180.46,144.69 C180.46,144.69 180.46,114.99 180.46,88.43" style="stroke:#181818;stroke-width:1;" fill="none" id="User-UserDislike" codeLine="61"/><text x="120.1" y="158.258" fill="#000" font-size="13" textLength="43.018">selects</text><text x="99.283" y="131.902" fill="#000" font-size="13">1</text><text x="173.977" y="108.44" fill="#000" font-size="13">*</text></g><!--link Genre to UserDislike--><g class="link" data-entity-1="ent0002" data-entity-2="ent0003" id="lnk11" data-source-line="62" data-link-type="association"><path d="M96.93,47.49 C106.51,47.49 116.73,47.49 126.61,47.49" style="stroke:#181818;stroke-width:1;" fill="none" id="Genre-UserDislike" codeLine="62"/><text x="44.77" y="44.058" fill="#000" font-size="13" textLength="66.93">belongs to</text><text x="104.77" y="61.279" fill="#000" font-size="13">1</text><text x="112.594" y="61.135" fill="#000" font-size="13">*</text></g><!--link User to Watchlist--><g class="link" data-entity-1="ent0001" data-entity-2="ent0005" id="lnk12" data-source-line="64" data-link-type="association"><path d="M91.49,157.06 C174.18,157.06 357.46,157.06 357.46,157.06 C357.46,157.06 357.46,146.23 357.46,134.13" style="stroke:#181818;stroke-width:1;" fill="none" id="User-Watchlist" codeLine="64"/><text x="213.94" y="170.628" fill="#000" font-size="13" textLength="21.874">has</text><text x="99.283" y="164.147" fill="#000" font-size="13">1</text><text x="346.929" y="152.439" fill="#000" font-size="13">*</text></g><!--link Watchlist to Movie--><g class="link" data-entity-1="ent0005" data-entity-2="ent0004" id="lnk13" data-source-line="65" data-link-type="association"><path d="M388.46,134.15 C388.46,143.34 388.46,150.87 388.46,150.87 C388.46,150.87 460.22,150.87 511.52,150.87" style="stroke:#181818;stroke-width:1;" fill="none" id="Watchlist-Movie" codeLine="65"/><text x="442.63" y="147.438" fill="#000" font-size="13" textLength="65.743">references</text><text x="385.396" y="152.464" fill="#000" font-size="13">*</text><text x="495.837" y="158.242" fill="#000" font-size="13">1</text></g><!--link User to WatchHistory--><g class="link" data-entity-1="ent0001" data-entity-2="ent0006" id="lnk14" data-source-line="67" data-link-type="association"><path d="M91.6,195.49 C146.97,195.49 247.78,195.49 312.62,195.49" style="stroke:#181818;stroke-width:1;" fill="none" id="User-WatchHistory" codeLine="67"/><text x="180.11" y="209.058" fill="#000" font-size="13" textLength="21.874">has</text><text x="99.138" y="209.375" fill="#000" font-size="13">1</text><text x="298.466" y="209.04" fill="#000" font-size="13">*</text></g><!--link WatchHistory to Movie--><g class="link" data-entity-1="ent0006" data-entity-2="ent0004" id="lnk15" data-source-line="68" data-link-type="association"><path d="M434.46,195.49 C459.35,195.49 487.8,195.49 511.52,195.49" style="stroke:#181818;stroke-width:1;" fill="none" id="WatchHistory-Movie" codeLine="68"/><text x="424.99" y="192.058" fill="#000" font-size="13" textLength="47.334">records</text><text x="441.883" y="208.944" fill="#000" font-size="13">*</text><text x="495.837" y="209.136" fill="#000" font-size="13">1</text></g><!--link User to Playlist--><g class="link" data-entity-1="ent0001" data-entity-2="ent0007" id="lnk16" data-source-line="70" data-link-type="association"><path d="M91.57,246.73 C104,246.73 117.88,246.73 130.91,246.73" style="stroke:#181818;stroke-width:1;" fill="none" id="User-Playlist" codeLine="70"/><text x="112.24" y="243.298" fill="#000" font-size="13" textLength="32.697">owns</text><text x="99.103" y="269.422" fill="#000" font-size="13">1</text><text x="116.84" y="255.148" fill="#000" font-size="13">*</text></g><!--link Playlist to MovieInPlaylist--><g class="link" data-entity-1="ent0007" data-entity-2="ent0008" id="lnk17" data-source-line="71" data-link-type="association"><path d="M230.86,289.49 C254.16,289.49 282.19,289.49 307.21,289.49" style="stroke:#181818;stroke-width:1;" fill="none" id="Playlist-MovieInPlaylist" codeLine="71"/><text x="215.04" y="286.058" fill="#000" font-size="13" textLength="53.206">contains</text><text x="238.485" y="304.26" fill="#000" font-size="13">1</text><text x="293.225" y="302.944" fill="#000" font-size="13">*</text></g><!--link MovieInPlaylist to Movie--><g class="link" data-entity-1="ent0008" data-entity-2="ent0004" id="lnk18" data-source-line="72" data-link-type="association"><path d="M373.46,256.9 C373.46,252.31 373.46,249.12 373.46,249.12 C373.46,249.12 455.74,249.12 511.67,249.12" style="stroke:#181818;stroke-width:1;" fill="none" id="MovieInPlaylist-Movie" codeLine="72"/><text x="439.67" y="245.688" fill="#000" font-size="13" textLength="65.743">references</text><text x="366.906" y="246.607" fill="#000" font-size="13">*</text><text x="495.668" y="270.691" fill="#000" font-size="13">1</text></g><!--link User to Mood--><g class="link" data-entity-1="ent0001" data-entity-2="ent0009" id="lnk19" data-source-line="74" data-link-type="dependency"><path d="M51.46,252.93 C51.46,321.05 51.46,425.49 51.46,425.49 C51.46,425.49 94.78,425.49 132.34,425.49" style="stroke:#181818;stroke-width:1;stroke-dasharray:7,7;" fill="none" id="User-to-Mood" codeLine="74"/><polygon points="137.34,425.49,128.34,421.49,132.34,425.49,128.34,429.49,137.34,425.49" fill="#181818" style="stroke:#181818;stroke-width:1;stroke-linejoin:miter;stroke-miterlimit:10;"/><text x="7.46" y="395.718" fill="#000" font-size="13" textLength="43.018">selects</text></g><?plantuml-src ZPJ1Rjim38RlVWeYnm4DDkoMmm2lILS3InOq6TOU6PjnXCYI8J7Dig7lFbcI7JLfWVbYKlhuKoHbIzeoi0OZwXr39GoLBBJAChiNgaM33PGIhSsPZTWSc8fIgvNuG_0nGLeizrZJYa-Ie9D0LKjA02aKyQabq8PtEjbGkY9BBNnEvGogVLpCV7RuQSd0tmpSSt1cKGscmeQyGmqAwQtMHHorgRANFlmRAKCnlkxiAE3jHQVmacQQ2Yl5dguJzh43FTVFekUugJRUZp0Bbk5ezgHqQuNrZa4MgWucIK9BK-Ja0B-GovqKbgFiiVVJl1wwTulQd2At2rvABIMU4gKskl5ylVkw_b21kWXDQtCegKFZI5t5xVjykNporYgV-lViyRPOpuBzCFkUF_RsZtc-M1Ut0RxD7vuwFJ_UqQSHtDp0wCFerH0cO5sRIhPPcEAxs8QaLhLrj_bQyDpK2UpGPcU_s-qWnuPXJjnOjcH8bMJV4UeRdsZrIs_AbUuolg4rz7W2-gXiDlW9SpcE2RZlZr4u_7BhVoePZx-4kPsxcYdD5Bz_lGsXVZf1f4964DP9kHy0FLEuErkZ6rZFfryXNnPZlrHmXpanw3eHEQ507umNsRYRFdOtf-eOkawhGyIT-4qL-89SCBQj52LslwIGPJ7e0rh0GHdSIwRw_m00?></g></svg>