<svg xmlns="http://www.w3.org/2000/svg" xmlns:xlink="http://www.w3.org/1999/xlink" version="1.1" data-diagram-type="SEQUENCE" style="width:1599px;height:1171px;background:#FFFFFF;" width="1599px" height="1171px" viewBox="0 0 1599 1171" zoomAndPan="magnify" preserveAspectRatio="none" contentStyleType="text/css"><?plantuml 1.2026.8?><defs/><g font-family="sans-serif" lengthAdjust="spacing"><g class="title" data-source-line="1"><text x="560.185" y="28.535" fill="#000" font-size="14" textLength="476.772" font-weight="700">Sequence Diagram - View Movie Details and Add Movie to Playlist</text></g><rect x="13" y="720.877" width="1549.717" height="339.371" fill="none" style="stroke:#000;stroke-width:1.5;"/><g><title>User</title><rect x="25.5" y="123.977" width="8" height="960.271" fill="#000" fill-opacity="0"/><line x1="29" y1="123.977" x2="29" y2="1084.248" style="stroke:#181818;stroke-width:0.5;stroke-dasharray:5,5;"/></g><g><title>MovieController</title><rect x="183.835" y="123.977" width="8" height="960.271" fill="#000" fill-opacity="0"/><line x1="187.335" y1="123.977" x2="187.335" y2="1084.248" style="stroke:#181818;stroke-width:0.5;stroke-dasharray:5,5;"/></g><g><title>MovieDetailFacade</title><rect x="398.779" y="123.977" width="8" height="960.271" fill="#000" fill-opacity="0"/><line x1="402.279" y1="123.977" x2="402.279" y2="1084.248" style="stroke:#181818;stroke-width:0.5;stroke-dasharray:5,5;"/></g><g><title>MovieProvider</title><rect x="570.559" y="123.977" width="8" height="960.271" fill="#000" fill-opacity="0"/><line x1="574.059" y1="123.977" x2="574.059" y2="1084.248" style="stroke:#181818;stroke-width:0.5;stroke-dasharray:5,5;"/></g><g><title>TMDB API</title><rect x="695.214" y="123.977" width="8" height="960.271" fill="#000" fill-opacity="0"/><line x1="698.714" y1="123.977" x2="698.714" y2="1084.248" style="stroke:#181818;stroke-width:0.5;stroke-dasharray:5,5;"/></g><g><title>PlaylistController</title><rect x="809.599" y="123.977" width="8" height="960.271" fill="#000" fill-opacity="0"/><line x1="813.099" y1="123.977" x2="813.099" y2="1084.248" style="stroke:#181818;stroke-width:0.5;stroke-dasharray:5,5;"/></g><g><title>PlaylistService</title><rect x="1049.781" y="123.977" width="8" height="960.271" fill="#000" fill-opacity="0"/><line x1="1053.281" y1="123.977" x2="1053.281" y2="1084.248" style="stroke:#181818;stroke-width:0.5;stroke-dasharray:5,5;"/></g><g><title>PlaylistRepository</title><rect x="1190.063" y="123.977" width="8" height="960.271" fill="#000" fill-opacity="0"/><line x1="1193.563" y1="123.977" x2="1193.563" y2="1084.248" style="stroke:#181818;stroke-width:0.5;stroke-dasharray:5,5;"/></g><g><title>MovieInPlaylistRepository</title><rect x="1398.844" y="123.977" width="8" height="960.271" fill="#000" fill-opacity="0"/><line x1="1402.344" y1="123.977" x2="1402.344" y2="1084.248" style="stroke:#181818;stroke-width:0.5;stroke-dasharray:5,5;"/></g><g><title>PostgreSQL</title><rect x="1543.217" y="123.977" width="8" height="960.271" fill="#000" fill-opacity="0"/><line x1="1546.717" y1="123.977" x2="1546.717" y2="1084.248" style="stroke:#181818;stroke-width:0.5;stroke-dasharray:5,5;"/></g><text x="10.817" y="121.023" fill="#000" font-size="14" textLength="30.365">User</text><ellipse cx="29" cy="55.988" rx="8" ry="8" fill="#E2E2F0" style="stroke:#181818;stroke-width:0.5;"/><path d="M29,63.988 L29,90.988 M16,71.988 L42,71.988 M29,90.988 L16,105.988 M29,90.988 L42,105.988" style="stroke:#181818;stroke-width:0.5;" fill="none"/><rect x="126.379" y="92.488" width="121.912" height="30.488" fill="#E2E2F0" style="stroke:#181818;stroke-width:0.5;" rx="2.5" ry="2.5"/><text x="133.379" y="113.023" fill="#000" font-size="14" textLength="107.912">MovieController</text><rect x="332.354" y="92.488" width="139.85" height="30.488" fill="#E2E2F0" style="stroke:#181818;stroke-width:0.5;" rx="2.5" ry="2.5"/><text x="339.354" y="113.023" fill="#000" font-size="14" textLength="125.85">MovieDetailFacade</text><rect x="519.334" y="92.488" width="109.45" height="30.488" fill="#E2E2F0" style="stroke:#181818;stroke-width:0.5;" rx="2.5" ry="2.5"/><text x="526.334" y="113.023" fill="#000" font-size="14" textLength="95.45">MovieProvider</text><rect x="659.059" y="92.488" width="79.311" height="30.488" fill="#E2E2F0" style="stroke:#181818;stroke-width:0.5;" rx="2.5" ry="2.5"/><text x="666.059" y="113.023" fill="#000" font-size="14" textLength="65.311">TMDB API</text><rect x="748.369" y="92.488" width="129.459" height="30.488" fill="#E2E2F0" style="stroke:#181818;stroke-width:0.5;" rx="2.5" ry="2.5"/><text x="755.369" y="113.023" fill="#000" font-size="14" textLength="115.459">PlaylistController</text><rect x="998.966" y="92.488" width="108.63" height="30.488" fill="#E2E2F0" style="stroke:#181818;stroke-width:0.5;" rx="2.5" ry="2.5"/><text x="1005.966" y="113.023" fill="#000" font-size="14" textLength="94.63">PlaylistService</text><rect x="1126.852" y="92.488" width="133.424" height="30.488" fill="#E2E2F0" style="stroke:#181818;stroke-width:0.5;" rx="2.5" ry="2.5"/><text x="1133.852" y="113.023" fill="#000" font-size="14" textLength="119.424">PlaylistRepository</text><rect x="1309.396" y="92.488" width="185.896" height="30.488" fill="#E2E2F0" style="stroke:#181818;stroke-width:0.5;" rx="2.5" ry="2.5"/><text x="1316.396" y="113.023" fill="#000" font-size="14" textLength="171.896">MovieInPlaylistRepository</text><text x="1505.292" y="121.023" fill="#000" font-size="14" textLength="76.85">PostgreSQL</text><path d="M1528.717,71.488 C1528.717,61.488 1546.717,61.488 1546.717,61.488 C1546.717,61.488 1564.717,61.488 1564.717,71.488 L1564.717,97.488 C1564.717,107.488 1546.717,107.488 1546.717,107.488 C1546.717,107.488 1528.717,107.488 1528.717,97.488 L1528.717,71.488" style="stroke:#181818;stroke-width:0.5;" fill="#E2E2F0"/><path d="M1528.717,71.488 C1528.717,81.488 1546.717,81.488 1546.717,81.488 C1546.717,81.488 1564.717,81.488 1564.717,71.488" style="stroke:#181818;stroke-width:0.5;" fill="none"/><text x="10.817" y="1097.783" fill="#000" font-size="14" textLength="30.365">User</text><ellipse cx="29" cy="1109.236" rx="8" ry="8" fill="#E2E2F0" style="stroke:#181818;stroke-width:0.5;"/><path d="M29,1117.236 L29,1144.236 M16,1125.236 L42,1125.236 M29,1144.236 L16,1159.236 M29,1144.236 L42,1159.236" style="stroke:#181818;stroke-width:0.5;" fill="none"/><rect x="126.379" y="1084.248" width="121.912" height="30.488" fill="#E2E2F0" style="stroke:#181818;stroke-width:0.5;" rx="2.5" ry="2.5"/><text x="133.379" y="1104.783" fill="#000" font-size="14" textLength="107.912">MovieController</text><rect x="332.354" y="1084.248" width="139.85" height="30.488" fill="#E2E2F0" style="stroke:#181818;stroke-width:0.5;" rx="2.5" ry="2.5"/><text x="339.354" y="1104.783" fill="#000" font-size="14" textLength="125.85">MovieDetailFacade</text><rect x="519.334" y="1084.248" width="109.45" height="30.488" fill="#E2E2F0" style="stroke:#181818;stroke-width:0.5;" rx="2.5" ry="2.5"/><text x="526.334" y="1104.783" fill="#000" font-size="14" textLength="95.45">MovieProvider</text><rect x="659.059" y="1084.248" width="79.311" height="30.488" fill="#E2E2F0" style="stroke:#181818;stroke-width:0.5;" rx="2.5" ry="2.5"/><text x="666.059" y="1104.783" fill="#000" font-size="14" textLength="65.311">TMDB API</text><rect x="748.369" y="1084.248" width="129.459" height="30.488" fill="#E2E2F0" style="stroke:#181818;stroke-width:0.5;" rx="2.5" ry="2.5"/><text x="755.369" y="1104.783" fill="#000" font-size="14" textLength="115.459">PlaylistController</text><rect x="998.966" y="1084.248" width="108.63" height="30.488" fill="#E2E2F0" style="stroke:#181818;stroke-width:0.5;" rx="2.5" ry="2.5"/><text x="1005.966" y="1104.783" fill="#000" font-size="14" textLength="94.63">PlaylistService</text><rect x="1126.852" y="1084.248" width="133.424" height="30.488" fill="#E2E2F0" style="stroke:#181818;stroke-width:0.5;" rx="2.5" ry="2.5"/><text x="1133.852" y="1104.783" fill="#000" font-size="14" textLength="119.424">PlaylistRepository</text><rect x="1309.396" y="1084.248" width="185.896" height="30.488" fill="#E2E2F0" style="stroke:#181818;stroke-width:0.5;" rx="2.5" ry="2.5"/><text x="1316.396" y="1104.783" fill="#000" font-size="14" textLength="171.896">MovieInPlaylistRepository</text><text x="1505.292" y="1097.783" fill="#000" font-size="14" textLength="76.85">PostgreSQL</text><path d="M1528.717,1110.736 C1528.717,1100.736 1546.717,1100.736 1546.717,1100.736 C1546.717,1100.736 1564.717,1100.736 1564.717,1110.736 L1564.717,1136.736 C1564.717,1146.736 1546.717,1146.736 1546.717,1146.736 C1546.717,1146.736 1528.717,1146.736 1528.717,1136.736 L1528.717,1110.736" style="stroke:#181818;stroke-width:0.5;" fill="#E2E2F0"/><path d="M1528.717,1110.736 C1528.717,1120.736 1546.717,1120.736 1546.717,1120.736 C1546.717,1120.736 1564.717,1120.736 1564.717,1110.736" style="stroke:#181818;stroke-width:0.5;" fill="none"/><rect x="10" y="152.632" width="1578.142" height="3" fill="#EEE" style="stroke:#EEE;stroke-width:1;"/><line x1="10" y1="152.632" x2="1588.142" y2="152.632" style="stroke:#000;stroke-width:1;"/><line x1="10" y1="155.632" x2="1588.142" y2="155.632" style="stroke:#000;stroke-width:1;"/><rect x="726.42" y="141.977" width="145.301" height="23.311" fill="#EEE" style="stroke:#000;stroke-width:2;"/><text x="732.42" y="158.545" fill="#000" font-size="13" textLength="127.017" font-weight="700">View Movie Details</text><polygon points="175.335,192.598,185.335,196.598,175.335,200.598,179.335,196.598" fill="#181818" style="stroke:#181818;stroke-width:1;stroke-linejoin:miter;stroke-miterlimit:10;"/><line x1="29" y1="196.598" x2="181.335" y2="196.598" style="stroke:#181818;stroke-width:1;"/><text x="36" y="191.855" fill="#000" font-size="13" textLength="125.068">Select Movie Details</text><polygon points="390.279,221.908,400.279,225.908,390.279,229.908,394.279,225.908" fill="#181818" style="stroke:#181818;stroke-width:1;stroke-linejoin:miter;stroke-miterlimit:10;"/><line x1="187.335" y1="225.908" x2="396.279" y2="225.908" style="stroke:#181818;stroke-width:1;"/><text x="194.335" y="221.166" fill="#000" font-size="13" textLength="190.944">getMovieDetails(tmdbMovieId)</text><polygon points="562.059,251.219,572.059,255.219,562.059,259.219,566.059,255.219" fill="#181818" style="stroke:#181818;stroke-width:1;stroke-linejoin:miter;stroke-miterlimit:10;"/><line x1="402.279" y1="255.219" x2="568.059" y2="255.219" style="stroke:#181818;stroke-width:1;"/><text x="409.279" y="250.477" fill="#000" font-size="13" textLength="147.78">getMovie(tmdbMovieId)</text><polygon points="686.714,280.529,696.714,284.529,686.714,288.529,690.714,284.529" fill="#181818" style="stroke:#181818;stroke-width:1;stroke-linejoin:miter;stroke-miterlimit:10;"/><line x1="574.059" y1="284.529" x2="692.714" y2="284.529" style="stroke:#181818;stroke-width:1;"/><text x="581.059" y="279.787" fill="#000" font-size="13" textLength="100.655">GET /movie/{id}</text><polygon points="585.059,309.84,575.059,313.84,585.059,317.84,581.059,313.84" fill="#181818" style="stroke:#181818;stroke-width:1;stroke-linejoin:miter;stroke-miterlimit:10;"/><line x1="579.059" y1="313.84" x2="697.714" y2="313.84" style="stroke:#181818;stroke-width:1;stroke-dasharray:2,2;"/><text x="591.059" y="309.098" fill="#000" font-size="13" textLength="82.634">Movie details</text><polygon points="413.279,339.15,403.279,343.15,413.279,347.15,409.279,343.15" fill="#181818" style="stroke:#181818;stroke-width:1;stroke-linejoin:miter;stroke-miterlimit:10;"/><line x1="407.279" y1="343.15" x2="573.059" y2="343.15" style="stroke:#181818;stroke-width:1;stroke-dasharray:2,2;"/><text x="419.279" y="338.408" fill="#000" font-size="13" textLength="36.912">Movie</text><polygon points="198.335,368.461,188.335,372.461,198.335,376.461,194.335,372.461" fill="#181818" style="stroke:#181818;stroke-width:1;stroke-linejoin:miter;stroke-miterlimit:10;"/><line x1="192.335" y1="372.461" x2="401.279" y2="372.461" style="stroke:#181818;stroke-width:1;stroke-dasharray:2,2;"/><text x="204.335" y="367.719" fill="#000" font-size="13" textLength="97.106">MovieResponse</text><polygon points="40,397.771,30,401.771,40,405.771,36,401.771" fill="#181818" style="stroke:#181818;stroke-width:1;stroke-linejoin:miter;stroke-miterlimit:10;"/><line x1="34" y1="401.771" x2="186.335" y2="401.771" style="stroke:#181818;stroke-width:1;stroke-dasharray:2,2;"/><text x="46" y="397.029" fill="#000" font-size="13" textLength="134.335">Display Movie Details</text><rect x="10" y="430.427" width="1578.142" height="3" fill="#EEE" style="stroke:#EEE;stroke-width:1;"/><line x1="10" y1="430.427" x2="1588.142" y2="430.427" style="stroke:#000;stroke-width:1;"/><line x1="10" y1="433.427" x2="1588.142" y2="433.427" style="stroke:#000;stroke-width:1;"/><rect x="719.238" y="419.771" width="159.666" height="23.311" fill="#EEE" style="stroke:#000;stroke-width:2;"/><text x="725.238" y="436.34" fill="#000" font-size="13" textLength="141.381" font-weight="700">Add Movie to Playlist</text><polygon points="801.099,470.393,811.099,474.393,801.099,478.393,805.099,474.393" fill="#181818" style="stroke:#181818;stroke-width:1;stroke-linejoin:miter;stroke-miterlimit:10;"/><line x1="29" y1="474.393" x2="807.099" y2="474.393" style="stroke:#181818;stroke-width:1;"/><text x="36" y="469.65" fill="#000" font-size="13" textLength="131.352">Add Movie to Playlist</text><polygon points="1041.281,499.703,1051.281,503.703,1041.281,507.703,1045.281,503.703" fill="#181818" style="stroke:#181818;stroke-width:1;stroke-linejoin:miter;stroke-miterlimit:10;"/><line x1="813.099" y1="503.703" x2="1047.281" y2="503.703" style="stroke:#181818;stroke-width:1;"/><text x="820.099" y="498.961" fill="#000" font-size="13" textLength="216.182">addMovie(playlistId, tmdbMovieId)</text><polygon points="1181.563,529.014,1191.563,533.014,1181.563,537.014,1185.563,533.014" fill="#181818" style="stroke:#181818;stroke-width:1;stroke-linejoin:miter;stroke-miterlimit:10;"/><line x1="1053.281" y1="533.014" x2="1187.563" y2="533.014" style="stroke:#181818;stroke-width:1;"/><text x="1060.281" y="528.271" fill="#000" font-size="13" textLength="116.283">findById(playlistId)</text><polygon points="1534.717,558.324,1544.717,562.324,1534.717,566.324,1538.717,562.324" fill="#181818" style="stroke:#181818;stroke-width:1;stroke-linejoin:miter;stroke-miterlimit:10;"/><line x1="1193.563" y1="562.324" x2="1540.717" y2="562.324" style="stroke:#181818;stroke-width:1;"/><text x="1200.563" y="557.582" fill="#000" font-size="13" textLength="93.272">SELECT Playlist</text><polygon points="1204.563,587.635,1194.563,591.635,1204.563,595.635,1200.563,591.635" fill="#181818" style="stroke:#181818;stroke-width:1;stroke-linejoin:miter;stroke-miterlimit:10;"/><line x1="1198.563" y1="591.635" x2="1545.717" y2="591.635" style="stroke:#181818;stroke-width:1;stroke-dasharray:2,2;"/><text x="1210.563" y="586.893" fill="#000" font-size="13" textLength="43.919">Playlist</text><polygon points="1064.281,616.945,1054.281,620.945,1064.281,624.945,1060.281,620.945" fill="#181818" style="stroke:#181818;stroke-width:1;stroke-linejoin:miter;stroke-miterlimit:10;"/><line x1="1058.281" y1="620.945" x2="1192.563" y2="620.945" style="stroke:#181818;stroke-width:1;stroke-dasharray:2,2;"/><text x="1070.281" y="616.203" fill="#000" font-size="13" textLength="43.919">Playlist</text><polygon points="1390.344,646.256,1400.344,650.256,1390.344,654.256,1394.344,650.256" fill="#181818" style="stroke:#181818;stroke-width:1;stroke-linejoin:miter;stroke-miterlimit:10;"/><line x1="1053.281" y1="650.256" x2="1396.344" y2="650.256" style="stroke:#181818;stroke-width:1;"/><text x="1060.281" y="645.514" fill="#000" font-size="13" textLength="325.063">existsByPlaylistIdAndMovie(playlistId, tmdbMovieId)</text><polygon points="1534.717,675.566,1544.717,679.566,1534.717,683.566,1538.717,679.566" fill="#181818" style="stroke:#181818;stroke-width:1;stroke-linejoin:miter;stroke-miterlimit:10;"/><line x1="1402.344" y1="679.566" x2="1540.717" y2="679.566" style="stroke:#181818;stroke-width:1;"/><text x="1409.344" y="674.824" fill="#000" font-size="13" textLength="97.525">SELECT relation</text><polygon points="1413.344,704.877,1403.344,708.877,1413.344,712.877,1409.344,708.877" fill="#181818" style="stroke:#181818;stroke-width:1;stroke-linejoin:miter;stroke-miterlimit:10;"/><line x1="1407.344" y1="708.877" x2="1545.717" y2="708.877" style="stroke:#181818;stroke-width:1;stroke-dasharray:2,2;"/><text x="1419.344" y="704.135" fill="#000" font-size="13" textLength="38.778">Result</text><path d="M13,720.877 L75.139,720.877 L75.139,728.188 L65.139,738.188 L13,738.188 L13,720.877" style="stroke:#000;stroke-width:1.5;" fill="#EEE"/><rect x="13" y="720.877" width="1549.717" height="339.371" fill="none" style="stroke:#000;stroke-width:1.5;"/><text x="28" y="734.445" fill="#000" font-size="13" textLength="17.139" font-weight="700">alt</text><text x="90.139" y="733.512" fill="#000" font-size="11" textLength="124.04" font-weight="700">[Movie already exists]</text><polygon points="1064.281,765.498,1054.281,769.498,1064.281,773.498,1060.281,769.498" fill="#181818" style="stroke:#181818;stroke-width:1;stroke-linejoin:miter;stroke-miterlimit:10;"/><line x1="1058.281" y1="769.498" x2="1401.344" y2="769.498" style="stroke:#181818;stroke-width:1;stroke-dasharray:2,2;"/><text x="1070.281" y="764.756" fill="#000" font-size="13" textLength="25.492">true</text><polygon points="824.099,794.809,814.099,798.809,824.099,802.809,820.099,798.809" fill="#181818" style="stroke:#181818;stroke-width:1;stroke-linejoin:miter;stroke-miterlimit:10;"/><line x1="818.099" y1="798.809" x2="1052.281" y2="798.809" style="stroke:#181818;stroke-width:1;stroke-dasharray:2,2;"/><text x="830.099" y="794.066" fill="#000" font-size="13" textLength="178.585">DuplicateResourceException</text><polygon points="40,824.119,30,828.119,40,832.119,36,828.119" fill="#181818" style="stroke:#181818;stroke-width:1;stroke-linejoin:miter;stroke-miterlimit:10;"/><line x1="34" y1="828.119" x2="812.099" y2="828.119" style="stroke:#181818;stroke-width:1;stroke-dasharray:2,2;"/><text x="46" y="823.377" fill="#000" font-size="13" textLength="77.638">409 Conflict</text><line x1="13" y1="837.119" x2="1562.717" y2="837.119" style="stroke:#000;stroke-width:1;stroke-dasharray:2,2;"/><text x="18" y="849.754" fill="#000" font-size="11" textLength="123.675" font-weight="700">[Movie not in playlist]</text><polygon points="1064.281,872.385,1054.281,876.385,1064.281,880.385,1060.281,876.385" fill="#181818" style="stroke:#181818;stroke-width:1;stroke-linejoin:miter;stroke-miterlimit:10;"/><line x1="1058.281" y1="876.385" x2="1401.344" y2="876.385" style="stroke:#181818;stroke-width:1;stroke-dasharray:2,2;"/><text x="1070.281" y="871.643" fill="#000" font-size="13" textLength="29.586">false</text><polygon points="1390.344,901.695,1400.344,905.695,1390.344,909.695,1394.344,905.695" fill="#181818" style="stroke:#181818;stroke-width:1;stroke-linejoin:miter;stroke-miterlimit:10;"/><line x1="1053.281" y1="905.695" x2="1396.344" y2="905.695" style="stroke:#181818;stroke-width:1;"/><text x="1060.281" y="900.953" fill="#000" font-size="13" textLength="128.876">save(MovieInPlaylist)</text><polygon points="1534.717,931.006,1544.717,935.006,1534.717,939.006,1538.717,935.006" fill="#181818" style="stroke:#181818;stroke-width:1;stroke-linejoin:miter;stroke-miterlimit:10;"/><line x1="1402.344" y1="935.006" x2="1540.717" y2="935.006" style="stroke:#181818;stroke-width:1;"/><text x="1409.344" y="930.264" fill="#000" font-size="13" textLength="96.123">INSERT relation</text><polygon points="1413.344,960.316,1403.344,964.316,1413.344,968.316,1409.344,964.316" fill="#181818" style="stroke:#181818;stroke-width:1;stroke-linejoin:miter;stroke-miterlimit:10;"/><line x1="1407.344" y1="964.316" x2="1545.717" y2="964.316" style="stroke:#181818;stroke-width:1;stroke-dasharray:2,2;"/><text x="1419.344" y="959.574" fill="#000" font-size="13" textLength="36.334">Saved</text><polygon points="1064.281,989.627,1054.281,993.627,1064.281,997.627,1060.281,993.627" fill="#181818" style="stroke:#181818;stroke-width:1;stroke-linejoin:miter;stroke-miterlimit:10;"/><line x1="1058.281" y1="993.627" x2="1401.344" y2="993.627" style="stroke:#181818;stroke-width:1;stroke-dasharray:2,2;"/><text x="1070.281" y="988.885" fill="#000" font-size="13" textLength="36.334">Saved</text><polygon points="824.099,1018.938,814.099,1022.938,824.099,1026.938,820.099,1022.938" fill="#181818" style="stroke:#181818;stroke-width:1;stroke-linejoin:miter;stroke-miterlimit:10;"/><line x1="818.099" y1="1022.938" x2="1052.281" y2="1022.938" style="stroke:#181818;stroke-width:1;stroke-dasharray:2,2;"/><text x="830.099" y="1018.195" fill="#000" font-size="13" textLength="48.883">Success</text><polygon points="40,1048.248,30,1052.248,40,1056.248,36,1052.248" fill="#181818" style="stroke:#181818;stroke-width:1;stroke-linejoin:miter;stroke-miterlimit:10;"/><line x1="34" y1="1052.248" x2="812.099" y2="1052.248" style="stroke:#181818;stroke-width:1;stroke-dasharray:2,2;"/><text x="46" y="1047.506" fill="#000" font-size="13" textLength="77.797">201 Created</text><?plantuml-src XLF1Yjim4BthAuOzxKB3RailNKWXSP9Ys1JLIdlNMfCWK6HNajCDfV_UaMnlxAnBSmZupPjvRvwae8D14FYpGLiYhBGyE7c46VpG-0ksrKaJY45guq5Q1GkbEZHKm8qy6-q3Ox8CbOFl7XshfGkwrBMq0MuIDQjiS9Knw6v0UiWcAAt4HfPIOI9j9aZSqR_gfl0nORTTBM71yrIB7snSxwrUUU7PD4sWE-cojIAcAGNMbTUqzhcTL4mupkq_sDkyO4e6-ImzqiZAXuD3yUqf5QFv-Npg1EPpncB8CFiC6JpIkHaimvZ4ibZTKFM0OH2klmr7zTpQKdTi4rbym1gNUIodK1_Xote7zyTOkV-jrH-Mu5dNtcghJfidVDFZKQMpchuBz7LbFKQFXATL7kdI-PfYkbeZHZ1vsqOfy3Xx-bBo58IWkbIgNR7kQhbw1wDrcKZ32YBljLNBSwu6P8gZYFMKXbW_hRFTHQRF8lPUj8i4YY7MQj394uWlXFZbcRzgBEp_FCREAnCEZGowihs9TZYbt9ZuA4r_DQHnADMvasL0lpIjinXSWmaKxIenqrLJ6rtA4C-iQbo9wvSIwoGMcNnqWXyVFW6zh3rra2uQkjIjiAq2Q0lzJc-KzvAulNJltyiJtbwzdxjBQnT1_bMiYq44iJwAGT0OzKRnWWwM5KrPelSJctruU0yPXHUe2QrYVm40?></g></svg>