<svg xmlns="http://www.w3.org/2000/svg" xmlns:xlink="http://www.w3.org/1999/xlink" version="1.1" data-diagram-type="ACTIVITY" style="width:858px;height:1046px;background:#FFFFFF;" width="858px" height="1046px" viewBox="0 0 858 1046" zoomAndPan="magnify" preserveAspectRatio="none" contentStyleType="text/css"><?plantuml 1.2026.8?><defs/><g font-family="sans-serif" lengthAdjust="spacing"><ellipse cx="547.106" cy="25" rx="10" ry="10" fill="#222" style="stroke:#222;stroke-width:1;"/><rect x="435.994" y="55" width="222.225" height="34.133" fill="#F1F1F1" style="stroke:#181818;stroke-width:0.5;" rx="12.5" ry="12.5"/><text x="445.994" y="76.602" fill="#000" font-size="12" textLength="202.225">User opens Recommendation page</text><rect x="470.38" y="109.133" width="153.453" height="34.133" fill="#F1F1F1" style="stroke:#181818;stroke-width:0.5;" rx="12.5" ry="12.5"/><text x="480.38" y="130.734" fill="#000" font-size="12" textLength="133.453">Display available Mood</text><rect x="484.126" y="163.266" width="125.961" height="34.133" fill="#F1F1F1" style="stroke:#181818;stroke-width:0.5;" rx="12.5" ry="12.5"/><text x="494.126" y="184.867" fill="#000" font-size="12" textLength="105.961">User selects Mood</text><polygon points="515.565,217.398,578.648,217.398,590.648,229.398,578.648,241.398,515.565,241.398,503.565,229.398,515.565,217.398" fill="#F1F1F1" style="stroke:#181818;stroke-width:0.5;stroke-linejoin:miter;stroke-miterlimit:10;"/><text x="515.565" y="233.556" fill="#000" font-size="11" textLength="63.083">Mood valid?</text><text x="484.975" y="227.078" fill="#000" font-size="11" textLength="18.589">Yes</text><text x="590.648" y="227.078" fill="#000" font-size="11" textLength="14.883">No</text><rect x="286.487" y="251.398" width="140.914" height="34.133" fill="#F1F1F1" style="stroke:#181818;stroke-width:0.5;" rx="12.5" ry="12.5"/><text x="296.487" y="273" fill="#000" font-size="12" textLength="120.914">Map Mood to Genres</text><rect x="274.672" y="305.531" width="164.545" height="34.133" fill="#F1F1F1" style="stroke:#181818;stroke-width:0.5;" rx="12.5" ry="12.5"/><text x="284.672" y="327.133" fill="#000" font-size="12" textLength="144.545">Get User Disliked Genres</text><rect x="255.5" y="359.664" width="202.889" height="34.133" fill="#F1F1F1" style="stroke:#181818;stroke-width:0.5;" rx="12.5" ry="12.5"/><text x="265.5" y="381.266" fill="#000" font-size="12" textLength="182.889">Request movies from TMDB API</text><polygon points="314.131,413.797,399.757,413.797,411.757,425.797,399.757,437.797,314.131,437.797,302.131,425.797,314.131,413.797" fill="#F1F1F1" style="stroke:#181818;stroke-width:0.5;stroke-linejoin:miter;stroke-miterlimit:10;"/><text x="314.131" y="429.954" fill="#000" font-size="11" textLength="85.626">TMDB available?</text><text x="283.542" y="423.477" fill="#000" font-size="11" textLength="18.589">Yes</text><text x="411.757" y="423.477" fill="#000" font-size="11" textLength="14.883">No</text><rect x="99.51" y="447.797" width="201.535" height="34.133" fill="#F1F1F1" style="stroke:#181818;stroke-width:0.5;" rx="12.5" ry="12.5"/><text x="109.51" y="469.398" fill="#000" font-size="12" textLength="181.535">Filter movies by Mood's Genres</text><rect x="84.325" y="501.93" width="231.904" height="34.133" fill="#F1F1F1" style="stroke:#181818;stroke-width:0.5;" rx="12.5" ry="12.5"/><text x="94.325" y="523.531" fill="#000" font-size="12" textLength="211.904">Exclude movies with disliked Genres</text><rect x="132.375" y="556.063" width="135.805" height="34.133" fill="#F1F1F1" style="stroke:#181818;stroke-width:0.5;" rx="12.5" ry="12.5"/><text x="142.375" y="577.664" fill="#000" font-size="12" textLength="115.805">Sort by Rating DESC</text><rect x="101.426" y="610.195" width="197.703" height="34.133" fill="#F1F1F1" style="stroke:#181818;stroke-width:0.5;" rx="12.5" ry="12.5"/><text x="111.426" y="631.797" fill="#000" font-size="12" textLength="177.703">Sort ties by Release Date DESC</text><rect x="129.791" y="664.328" width="140.973" height="34.133" fill="#F1F1F1" style="stroke:#181818;stroke-width:0.5;" rx="12.5" ry="12.5"/><text x="139.791" y="685.93" fill="#000" font-size="12" textLength="120.973">Select top 10 movies</text><polygon points="126.06,718.461,274.495,718.461,286.495,730.461,274.495,742.461,126.06,742.461,114.06,730.461,126.06,718.461" fill="#F1F1F1" style="stroke:#181818;stroke-width:0.5;stroke-linejoin:miter;stroke-miterlimit:10;"/><text x="126.06" y="734.618" fill="#000" font-size="11" textLength="148.436">Any matching movie found?</text><text x="95.47" y="728.141" fill="#000" font-size="11" textLength="18.589">Yes</text><text x="286.495" y="728.141" fill="#000" font-size="11" textLength="14.883">No</text><rect x="16" y="752.461" width="171.014" height="34.133" fill="#F1F1F1" style="stroke:#181818;stroke-width:0.5;" rx="12.5" ry="12.5"/><text x="26" y="774.063" fill="#000" font-size="12" textLength="151.014">Display recommendations</text><rect x="37.806" y="806.594" width="127.402" height="34.133" fill="#F1F1F1" style="stroke:#181818;stroke-width:0.5;" rx="12.5" ry="12.5"/><text x="47.806" y="828.195" fill="#000" font-size="12" textLength="107.402">User selects Movie</text><rect x="29.506" y="860.727" width="144.002" height="34.133" fill="#F1F1F1" style="stroke:#181818;stroke-width:0.5;" rx="12.5" ry="12.5"/><text x="39.506" y="882.328" fill="#000" font-size="12" textLength="124.002">Display Movie Details</text><rect x="207.014" y="752.461" width="184.068" height="34.133" fill="#F1F1F1" style="stroke:#181818;stroke-width:0.5;" rx="12.5" ry="12.5"/><text x="217.014" y="774.063" fill="#000" font-size="12" textLength="164.068">Display no matching movies</text><polygon points="200.277,900.859,212.277,912.859,200.277,924.859,188.277,912.859,200.277,900.859" fill="#F1F1F1" style="stroke:#181818;stroke-width:0.5;stroke-linejoin:miter;stroke-miterlimit:10;"/><rect x="421.082" y="447.797" width="185.059" height="34.133" fill="#F1F1F1" style="stroke:#181818;stroke-width:0.5;" rx="12.5" ry="12.5"/><text x="431.082" y="469.398" fill="#000" font-size="12" textLength="165.059">Display API connection error</text><polygon points="356.944,930.859,368.944,942.859,356.944,954.859,344.944,942.859,356.944,930.859" fill="#F1F1F1" style="stroke:#181818;stroke-width:0.5;stroke-linejoin:miter;stroke-miterlimit:10;"/><rect x="636.141" y="251.398" width="202.256" height="34.133" fill="#F1F1F1" style="stroke:#181818;stroke-width:0.5;" rx="12.5" ry="12.5"/><text x="646.141" y="273" fill="#000" font-size="12" textLength="182.256">Ask User to select a valid Mood</text><polygon points="547.106,960.859,559.106,972.859,547.106,984.859,535.106,972.859,547.106,960.859" fill="#F1F1F1" style="stroke:#181818;stroke-width:0.5;stroke-linejoin:miter;stroke-miterlimit:10;"/><ellipse cx="547.106" cy="1015.859" rx="11" ry="11" fill="none" style="stroke:#222;stroke-width:1;"/><ellipse cx="547.106" cy="1015.859" rx="6" ry="6" fill="#222" style="stroke:#222;stroke-width:1;"/><line x1="547.106" y1="35" x2="547.106" y2="55" style="stroke:#181818;stroke-width:1;"/><polygon points="543.106,45,547.106,55,551.106,45,547.106,49" fill="#181818" style="stroke:#181818;stroke-width:1;stroke-linejoin:miter;stroke-miterlimit:10;"/><line x1="547.106" y1="89.133" x2="547.106" y2="109.133" style="stroke:#181818;stroke-width:1;"/><polygon points="543.106,99.133,547.106,109.133,551.106,99.133,547.106,103.133" fill="#181818" style="stroke:#181818;stroke-width:1;stroke-linejoin:miter;stroke-miterlimit:10;"/><line x1="547.106" y1="143.266" x2="547.106" y2="163.266" style="stroke:#181818;stroke-width:1;"/><polygon points="543.106,153.266,547.106,163.266,551.106,153.266,547.106,157.266" fill="#181818" style="stroke:#181818;stroke-width:1;stroke-linejoin:miter;stroke-miterlimit:10;"/><line x1="356.944" y1="285.531" x2="356.944" y2="305.531" style="stroke:#181818;stroke-width:1;"/><polygon points="352.944,295.531,356.944,305.531,360.944,295.531,356.944,299.531" fill="#181818" style="stroke:#181818;stroke-width:1;stroke-linejoin:miter;stroke-miterlimit:10;"/><line x1="356.944" y1="339.664" x2="356.944" y2="359.664" style="stroke:#181818;stroke-width:1;"/><polygon points="352.944,349.664,356.944,359.664,360.944,349.664,356.944,353.664" fill="#181818" style="stroke:#181818;stroke-width:1;stroke-linejoin:miter;stroke-miterlimit:10;"/><line x1="200.277" y1="481.93" x2="200.277" y2="501.93" style="stroke:#181818;stroke-width:1;"/><polygon points="196.277,491.93,200.277,501.93,204.277,491.93,200.277,495.93" fill="#181818" style="stroke:#181818;stroke-width:1;stroke-linejoin:miter;stroke-miterlimit:10;"/><line x1="200.277" y1="536.063" x2="200.277" y2="556.063" style="stroke:#181818;stroke-width:1;"/><polygon points="196.277,546.063,200.277,556.063,204.277,546.063,200.277,550.063" fill="#181818" style="stroke:#181818;stroke-width:1;stroke-linejoin:miter;stroke-miterlimit:10;"/><line x1="200.277" y1="590.195" x2="200.277" y2="610.195" style="stroke:#181818;stroke-width:1;"/><polygon points="196.277,600.195,200.277,610.195,204.277,600.195,200.277,604.195" fill="#181818" style="stroke:#181818;stroke-width:1;stroke-linejoin:miter;stroke-miterlimit:10;"/><line x1="200.277" y1="644.328" x2="200.277" y2="664.328" style="stroke:#181818;stroke-width:1;"/><polygon points="196.277,654.328,200.277,664.328,204.277,654.328,200.277,658.328" fill="#181818" style="stroke:#181818;stroke-width:1;stroke-linejoin:miter;stroke-miterlimit:10;"/><line x1="101.507" y1="786.594" x2="101.507" y2="806.594" style="stroke:#181818;stroke-width:1;"/><polygon points="97.507,796.594,101.507,806.594,105.507,796.594,101.507,800.594" fill="#181818" style="stroke:#181818;stroke-width:1;stroke-linejoin:miter;stroke-miterlimit:10;"/><line x1="101.507" y1="840.727" x2="101.507" y2="860.727" style="stroke:#181818;stroke-width:1;"/><polygon points="97.507,850.727,101.507,860.727,105.507,850.727,101.507,854.727" fill="#181818" style="stroke:#181818;stroke-width:1;stroke-linejoin:miter;stroke-miterlimit:10;"/><line x1="114.06" y1="730.461" x2="101.507" y2="730.461" style="stroke:#181818;stroke-width:1;"/><line x1="101.507" y1="730.461" x2="101.507" y2="752.461" style="stroke:#181818;stroke-width:1;"/><polygon points="97.507,742.461,101.507,752.461,105.507,742.461,101.507,746.461" fill="#181818" style="stroke:#181818;stroke-width:1;stroke-linejoin:miter;stroke-miterlimit:10;"/><line x1="286.495" y1="730.461" x2="299.048" y2="730.461" style="stroke:#181818;stroke-width:1;"/><line x1="299.048" y1="730.461" x2="299.048" y2="752.461" style="stroke:#181818;stroke-width:1;"/><polygon points="295.048,742.461,299.048,752.461,303.048,742.461,299.048,746.461" fill="#181818" style="stroke:#181818;stroke-width:1;stroke-linejoin:miter;stroke-miterlimit:10;"/><line x1="101.507" y1="894.859" x2="101.507" y2="912.859" style="stroke:#181818;stroke-width:1;"/><line x1="101.507" y1="912.859" x2="188.277" y2="912.859" style="stroke:#181818;stroke-width:1;"/><polygon points="178.277,908.859,188.277,912.859,178.277,916.859,182.277,912.859" fill="#181818" style="stroke:#181818;stroke-width:1;stroke-linejoin:miter;stroke-miterlimit:10;"/><line x1="299.048" y1="786.594" x2="299.048" y2="912.859" style="stroke:#181818;stroke-width:1;"/><line x1="299.048" y1="912.859" x2="212.277" y2="912.859" style="stroke:#181818;stroke-width:1;"/><polygon points="222.277,908.859,212.277,912.859,222.277,916.859,218.277,912.859" fill="#181818" style="stroke:#181818;stroke-width:1;stroke-linejoin:miter;stroke-miterlimit:10;"/><line x1="200.277" y1="698.461" x2="200.277" y2="718.461" style="stroke:#181818;stroke-width:1;"/><polygon points="196.277,708.461,200.277,718.461,204.277,708.461,200.277,712.461" fill="#181818" style="stroke:#181818;stroke-width:1;stroke-linejoin:miter;stroke-miterlimit:10;"/><line x1="302.131" y1="425.797" x2="200.277" y2="425.797" style="stroke:#181818;stroke-width:1;"/><line x1="200.277" y1="425.797" x2="200.277" y2="447.797" style="stroke:#181818;stroke-width:1;"/><polygon points="196.277,437.797,200.277,447.797,204.277,437.797,200.277,441.797" fill="#181818" style="stroke:#181818;stroke-width:1;stroke-linejoin:miter;stroke-miterlimit:10;"/><line x1="411.757" y1="425.797" x2="513.611" y2="425.797" style="stroke:#181818;stroke-width:1;"/><line x1="513.611" y1="425.797" x2="513.611" y2="447.797" style="stroke:#181818;stroke-width:1;"/><polygon points="509.611,437.797,513.611,447.797,517.611,437.797,513.611,441.797" fill="#181818" style="stroke:#181818;stroke-width:1;stroke-linejoin:miter;stroke-miterlimit:10;"/><line x1="200.277" y1="924.859" x2="200.277" y2="942.859" style="stroke:#181818;stroke-width:1;"/><line x1="200.277" y1="942.859" x2="344.944" y2="942.859" style="stroke:#181818;stroke-width:1;"/><polygon points="334.944,938.859,344.944,942.859,334.944,946.859,338.944,942.859" fill="#181818" style="stroke:#181818;stroke-width:1;stroke-linejoin:miter;stroke-miterlimit:10;"/><line x1="513.611" y1="481.93" x2="513.611" y2="942.859" style="stroke:#181818;stroke-width:1;"/><line x1="513.611" y1="942.859" x2="368.944" y2="942.859" style="stroke:#181818;stroke-width:1;"/><polygon points="378.944,938.859,368.944,942.859,378.944,946.859,374.944,942.859" fill="#181818" style="stroke:#181818;stroke-width:1;stroke-linejoin:miter;stroke-miterlimit:10;"/><line x1="356.944" y1="393.797" x2="356.944" y2="413.797" style="stroke:#181818;stroke-width:1;"/><polygon points="352.944,403.797,356.944,413.797,360.944,403.797,356.944,407.797" fill="#181818" style="stroke:#181818;stroke-width:1;stroke-linejoin:miter;stroke-miterlimit:10;"/><line x1="503.565" y1="229.398" x2="356.944" y2="229.398" style="stroke:#181818;stroke-width:1;"/><line x1="356.944" y1="229.398" x2="356.944" y2="251.398" style="stroke:#181818;stroke-width:1;"/><polygon points="352.944,241.398,356.944,251.398,360.944,241.398,356.944,245.398" fill="#181818" style="stroke:#181818;stroke-width:1;stroke-linejoin:miter;stroke-miterlimit:10;"/><line x1="590.648" y1="229.398" x2="737.269" y2="229.398" style="stroke:#181818;stroke-width:1;"/><line x1="737.269" y1="229.398" x2="737.269" y2="251.398" style="stroke:#181818;stroke-width:1;"/><polygon points="733.269,241.398,737.269,251.398,741.269,241.398,737.269,245.398" fill="#181818" style="stroke:#181818;stroke-width:1;stroke-linejoin:miter;stroke-miterlimit:10;"/><line x1="356.944" y1="954.859" x2="356.944" y2="972.859" style="stroke:#181818;stroke-width:1;"/><line x1="356.944" y1="972.859" x2="535.106" y2="972.859" style="stroke:#181818;stroke-width:1;"/><polygon points="525.106,968.859,535.106,972.859,525.106,976.859,529.106,972.859" fill="#181818" style="stroke:#181818;stroke-width:1;stroke-linejoin:miter;stroke-miterlimit:10;"/><line x1="737.269" y1="285.531" x2="737.269" y2="972.859" style="stroke:#181818;stroke-width:1;"/><line x1="737.269" y1="972.859" x2="559.106" y2="972.859" style="stroke:#181818;stroke-width:1;"/><polygon points="569.106,968.859,559.106,972.859,569.106,976.859,565.106,972.859" fill="#181818" style="stroke:#181818;stroke-width:1;stroke-linejoin:miter;stroke-miterlimit:10;"/><line x1="547.106" y1="197.398" x2="547.106" y2="217.398" style="stroke:#181818;stroke-width:1;"/><polygon points="543.106,207.398,547.106,217.398,551.106,207.398,547.106,211.398" fill="#181818" style="stroke:#181818;stroke-width:1;stroke-linejoin:miter;stroke-miterlimit:10;"/><line x1="547.106" y1="984.859" x2="547.106" y2="1004.859" style="stroke:#181818;stroke-width:1;"/><polygon points="543.106,994.859,547.106,1004.859,551.106,994.859,547.106,998.859" fill="#181818" style="stroke:#181818;stroke-width:1;stroke-linejoin:miter;stroke-miterlimit:10;"/><?plantuml-src TLAnTi8m3Dpp5TeAMxicGnzjWDU1lhxG3XrDh80VZfNQWfQ_h-COIjAGAObETwUJ70lBIP9-EBH03He71PPKrsYaO4K66h75B4bpvHejJY2EGccnqGWh8fd5JeSQItRnNw8gcBIlS1HQoSSfy0uDJ3xHJPC4_9EkH1F0m0HBD1PTrXMMo10elQ1MUvJzSe5V1tGCDHqLEgWirV2-ofzWzlQITTojUFXriJfY890jb6Ql5Basf-3eplKK0t3-K-g3n3FoM_4Ev9Y_W5wJvPQjy06QBUJpzVEmob6myBa9Xv0Bnd_0aAaFg867-oYT_RblnvoP4zI2orsh4n1GqS786mC7slCYRM_DL_u3Qh1LpvoDquGQvCW-wsjxgFrOarUw9MzeuBpNRAIgkiyHdWk7tpcKP8mtsLugMaisiaI6GNSwS_lkklpPTTE1w8xqVBgnqVdOary0?></g></svg>