<?xml version="1.0" encoding="us-ascii" standalone="no"?><svg xmlns="http://www.w3.org/2000/svg" xmlns:xlink="http://www.w3.org/1999/xlink" contentStyleType="text/css" height="636px" preserveAspectRatio="none" style="width:1070px;height:636px;background:#FFFFFF;" version="1.1" viewBox="0 0 1070 636" width="1070px" zoomAndPan="magnify"><defs/><g><text fill="#000000" font-family="sans-serif" font-size="14" font-weight="bold" lengthAdjust="spacing" textLength="181" x="437.75" y="24.5332">Movie Mood - ER Diagram</text><!--class Genre--><g id="elem_Genre"><rect codeLine="12" fill="#F1F1F1" height="78.8281" id="Genre" rx="2.5" ry="2.5" style="stroke:#181818;stroke-width:0.5;" width="223" x="7" y="63.1094"/><text fill="#000000" font-family="sans-serif" font-size="14" lengthAdjust="spacing" textLength="40" x="98.5" y="82.6426">Genre</text><line style="stroke:#181818;stroke-width:0.5;" x1="8" x2="229" y1="90.7188" y2="90.7188"/><text fill="#000000" font-family="sans-serif" font-size="14" lengthAdjust="spacing" textLength="211" x="13" y="109.252">*genre_id : VARCHAR(255) &#171;PK&#187;</text><line style="stroke:#181818;stroke-width:1.0;" x1="8" x2="229" y1="116.3281" y2="116.3281"/><text fill="#000000" font-family="sans-serif" font-size="14" lengthAdjust="spacing" textLength="192" x="13" y="134.8613">genre_name : VARCHAR(255)</text></g><!--class User--><g id="elem_User"><rect codeLine="18" fill="#F1F1F1" height="114.0469" id="User" rx="2.5" ry="2.5" style="stroke:#181818;stroke-width:0.5;" width="232" x="295.5" y="45.6094"/><text fill="#000000" font-family="sans-serif" font-size="14" lengthAdjust="spacing" textLength="29" x="397" y="65.1426">User</text><line style="stroke:#181818;stroke-width:0.5;" x1="296.5" x2="526.5" y1="73.2188" y2="73.2188"/><text fill="#000000" font-family="sans-serif" font-size="14" lengthAdjust="spacing" textLength="133" x="301.5" y="91.752">*user_id : UUID &#171;PK&#187;</text><line style="stroke:#181818;stroke-width:1.0;" x1="296.5" x2="526.5" y1="98.8281" y2="98.8281"/><text fill="#000000" font-family="sans-serif" font-size="14" lengthAdjust="spacing" textLength="220" x="301.5" y="117.3613">*username : VARCHAR(255) &#171;UQ&#187;</text><text fill="#000000" font-family="sans-serif" font-size="14" lengthAdjust="spacing" textLength="190" x="301.5" y="134.9707">*email : VARCHAR(255) &#171;UQ&#187;</text><text fill="#000000" font-family="sans-serif" font-size="14" lengthAdjust="spacing" textLength="177" x="301.5" y="152.5801">*password : VARCHAR(255)</text></g><!--class UserDislikedGenre--><g id="elem_UserDislikedGenre"><rect codeLine="26" fill="#F1F1F1" height="96.4375" id="UserDislikedGenre" rx="2.5" ry="2.5" style="stroke:#181818;stroke-width:0.5;" width="223" x="7" y="242.6094"/><text fill="#000000" font-family="sans-serif" font-size="14" lengthAdjust="spacing" textLength="118" x="59.5" y="262.1426">UserDislikedGenre</text><line style="stroke:#181818;stroke-width:0.5;" x1="8" x2="229" y1="270.2188" y2="270.2188"/><text fill="#000000" font-family="sans-serif" font-size="14" lengthAdjust="spacing" textLength="97" x="13" y="288.752">*id : UUID &#171;PK&#187;</text><line style="stroke:#181818;stroke-width:1.0;" x1="8" x2="229" y1="295.8281" y2="295.8281"/><text fill="#000000" font-family="sans-serif" font-size="14" lengthAdjust="spacing" textLength="133" x="13" y="314.3613">*user_id : UUID &#171;FK&#187;</text><text fill="#000000" font-family="sans-serif" font-size="14" lengthAdjust="spacing" textLength="211" x="13" y="331.9707">*genre_id : VARCHAR(255) &#171;FK&#187;</text></g><!--class WatchHistory--><g id="elem_WatchHistory"><rect codeLine="33" fill="#F1F1F1" height="96.4375" id="WatchHistory" rx="2.5" ry="2.5" style="stroke:#181818;stroke-width:0.5;" width="219" x="295" y="242.6094"/><text fill="#000000" font-family="sans-serif" font-size="14" lengthAdjust="spacing" textLength="83" x="363" y="262.1426">WatchHistory</text><line style="stroke:#181818;stroke-width:0.5;" x1="296" x2="513" y1="270.2188" y2="270.2188"/><text fill="#000000" font-family="sans-serif" font-size="14" lengthAdjust="spacing" textLength="147" x="301" y="288.752">*history_id : UUID &#171;PK&#187;</text><line style="stroke:#181818;stroke-width:1.0;" x1="296" x2="513" y1="295.8281" y2="295.8281"/><text fill="#000000" font-family="sans-serif" font-size="14" lengthAdjust="spacing" textLength="133" x="301" y="314.3613">*user_id : UUID &#171;FK&#187;</text><text fill="#000000" font-family="sans-serif" font-size="14" lengthAdjust="spacing" textLength="207" x="301" y="331.9707">tmdb_movie_id : VARCHAR(255)</text></g><!--class Playlist--><g id="elem_Playlist"><rect codeLine="40" fill="#F1F1F1" height="96.4375" id="Playlist" rx="2.5" ry="2.5" style="stroke:#181818;stroke-width:0.5;" width="215" x="579" y="242.6094"/><text fill="#000000" font-family="sans-serif" font-size="14" lengthAdjust="spacing" textLength="44" x="664.5" y="262.1426">Playlist</text><line style="stroke:#181818;stroke-width:0.5;" x1="580" x2="793" y1="270.2188" y2="270.2188"/><text fill="#000000" font-family="sans-serif" font-size="14" lengthAdjust="spacing" textLength="148" x="585" y="288.752">*playlist_id : UUID &#171;PK&#187;</text><line style="stroke:#181818;stroke-width:1.0;" x1="580" x2="793" y1="295.8281" y2="295.8281"/><text fill="#000000" font-family="sans-serif" font-size="14" lengthAdjust="spacing" textLength="133" x="585" y="314.3613">*user_id : UUID &#171;FK&#187;</text><text fill="#000000" font-family="sans-serif" font-size="14" lengthAdjust="spacing" textLength="203" x="585" y="331.9707">*playlist_name : VARCHAR(255)</text></g><!--class Movielist--><g id="elem_Movielist"><rect codeLine="47" fill="#F1F1F1" height="96.4375" id="Movielist" rx="2.5" ry="2.5" style="stroke:#181818;stroke-width:0.5;" width="219" x="429" y="421.6094"/><text fill="#000000" font-family="sans-serif" font-size="14" lengthAdjust="spacing" textLength="54" x="511.5" y="441.1426">Movielist</text><line style="stroke:#181818;stroke-width:0.5;" x1="430" x2="647" y1="449.2188" y2="449.2188"/><text fill="#000000" font-family="sans-serif" font-size="14" lengthAdjust="spacing" textLength="97" x="435" y="467.752">*id : UUID &#171;PK&#187;</text><line style="stroke:#181818;stroke-width:1.0;" x1="430" x2="647" y1="474.8281" y2="474.8281"/><text fill="#000000" font-family="sans-serif" font-size="14" lengthAdjust="spacing" textLength="148" x="435" y="493.3613">*playlist_id : UUID &#171;FK&#187;</text><text fill="#000000" font-family="sans-serif" font-size="14" lengthAdjust="spacing" textLength="207" x="435" y="510.9707">tmdb_movie_id : VARCHAR(255)</text></g><!--class PlaylistDetail--><g id="elem_PlaylistDetail"><rect codeLine="54" fill="#F1F1F1" height="96.4375" id="PlaylistDetail" rx="2.5" ry="2.5" style="stroke:#181818;stroke-width:0.5;" width="241" x="713" y="421.6094"/><text fill="#000000" font-family="sans-serif" font-size="14" lengthAdjust="spacing" textLength="80" x="793.5" y="441.1426">PlaylistDetail</text><line style="stroke:#181818;stroke-width:0.5;" x1="714" x2="953" y1="449.2188" y2="449.2188"/><text fill="#000000" font-family="sans-serif" font-size="14" lengthAdjust="spacing" textLength="174" x="719" y="467.752">*playlist_id : UUID &#171;PK, FK&#187;</text><line style="stroke:#181818;stroke-width:1.0;" x1="714" x2="953" y1="474.8281" y2="474.8281"/><text fill="#000000" font-family="sans-serif" font-size="14" lengthAdjust="spacing" textLength="146" x="719" y="493.3613">detail : VARCHAR(255)</text><text fill="#000000" font-family="sans-serif" font-size="14" lengthAdjust="spacing" textLength="229" x="719" y="510.9707">cover_image_path : VARCHAR(255)</text></g><!--class ResetToken--><g id="elem_ResetToken"><rect codeLine="61" fill="#F1F1F1" height="131.6563" id="ResetToken" rx="2.5" ry="2.5" style="stroke:#181818;stroke-width:0.5;" width="204" x="859.5" y="224.6094"/><text fill="#000000" font-family="sans-serif" font-size="14" lengthAdjust="spacing" textLength="150" x="886.5" y="244.1426">password_reset_tokens</text><line style="stroke:#181818;stroke-width:0.5;" x1="860.5" x2="1062.5" y1="252.2188" y2="252.2188"/><text fill="#000000" font-family="sans-serif" font-size="14" lengthAdjust="spacing" textLength="97" x="865.5" y="270.752">*id : UUID &#171;PK&#187;</text><line style="stroke:#181818;stroke-width:1.0;" x1="860.5" x2="1062.5" y1="277.8281" y2="277.8281"/><text fill="#000000" font-family="sans-serif" font-size="14" lengthAdjust="spacing" textLength="161" x="865.5" y="296.3613">*user_id : UUID &#171;FK, UQ&#187;</text><text fill="#000000" font-family="sans-serif" font-size="14" lengthAdjust="spacing" textLength="192" x="865.5" y="313.9707">*token : VARCHAR(255) &#171;UQ&#187;</text><text fill="#000000" font-family="sans-serif" font-size="14" lengthAdjust="spacing" textLength="180" x="865.5" y="331.5801">*expiryDate : TIMESTAMPTZ</text><text fill="#000000" font-family="sans-serif" font-size="14" lengthAdjust="spacing" textLength="114" x="865.5" y="349.1895">*used : BOOLEAN</text></g><!--link User to UserDislikedGenre--><g id="link_User_UserDislikedGenre"><path codeLine="70" d="M287.19,151.6094 C219.6,151.6094 155.67,151.6094 155.67,151.6094 C155.67,151.6094 155.67,184.2394 155.67,224.3794 " fill="none" id="User-UserDislikedGenre" style="stroke:#181818;stroke-width:1.0;"/><line style="stroke:#181818;stroke-width:1.0;" x1="291.19" x2="291.19" y1="147.6094" y2="155.6094"/><line style="stroke:#181818;stroke-width:1.0;" x1="288.19" x2="288.19" y1="147.6094" y2="155.6094"/><line style="stroke:#181818;stroke-width:1.0;" x1="287.19" x2="295.19" y1="151.6094" y2="151.6094"/><line style="stroke:#181818;stroke-width:1.0;" x1="155.67" x2="161.67" y1="234.3794" y2="242.3794"/><line style="stroke:#181818;stroke-width:1.0;" x1="155.67" x2="149.67" y1="234.3794" y2="242.3794"/><line style="stroke:#181818;stroke-width:1.0;" x1="155.67" x2="155.67" y1="234.3794" y2="242.3794"/><ellipse cx="155.67" cy="228.3794" fill="none" rx="4" ry="4" style="stroke:#181818;stroke-width:1.0;"/></g><!--link Genre to UserDislikedGenre--><g id="link_Genre_UserDislikedGenre"><path codeLine="71" d="M81.33,150.4794 C81.33,179.6894 81.33,193.4794 81.33,224.4594 " fill="none" id="Genre-UserDislikedGenre" style="stroke:#181818;stroke-width:1.0;"/><line style="stroke:#181818;stroke-width:1.0;" x1="77.33" x2="85.33" y1="146.4794" y2="146.4794"/><line style="stroke:#181818;stroke-width:1.0;" x1="77.33" x2="85.33" y1="149.4794" y2="149.4794"/><line style="stroke:#181818;stroke-width:1.0;" x1="81.33" x2="81.33" y1="150.4794" y2="142.4794"/><line style="stroke:#181818;stroke-width:1.0;" x1="81.33" x2="87.33" y1="234.4594" y2="242.4594"/><line style="stroke:#181818;stroke-width:1.0;" x1="81.33" x2="75.33" y1="234.4594" y2="242.4594"/><line style="stroke:#181818;stroke-width:1.0;" x1="81.33" x2="81.33" y1="234.4594" y2="242.4594"/><ellipse cx="81.33" cy="228.4594" fill="none" rx="4" ry="4" style="stroke:#181818;stroke-width:1.0;"/></g><!--link User to WatchHistory--><g id="link_User_WatchHistory"><path codeLine="73" d="M404.75,167.7794 C404.75,194.2494 404.75,199.3394 404.75,224.5794 " fill="none" id="User-WatchHistory" style="stroke:#181818;stroke-width:1.0;"/><line style="stroke:#181818;stroke-width:1.0;" x1="400.75" x2="408.75" y1="163.7794" y2="163.7794"/><line style="stroke:#181818;stroke-width:1.0;" x1="400.75" x2="408.75" y1="166.7794" y2="166.7794"/><line style="stroke:#181818;stroke-width:1.0;" x1="404.75" x2="404.75" y1="167.7794" y2="159.7794"/><line style="stroke:#181818;stroke-width:1.0;" x1="404.75" x2="410.75" y1="234.5794" y2="242.5794"/><line style="stroke:#181818;stroke-width:1.0;" x1="404.75" x2="398.75" y1="234.5794" y2="242.5794"/><line style="stroke:#181818;stroke-width:1.0;" x1="404.75" x2="404.75" y1="234.5794" y2="242.5794"/><ellipse cx="404.75" cy="228.5794" fill="none" rx="4" ry="4" style="stroke:#181818;stroke-width:1.0;"/></g><!--link User to Playlist--><g id="link_User_Playlist"><path codeLine="74" d="M518.5,167.8794 C518.5,217.9194 518.5,274.6094 518.5,274.6094 C518.5,274.6094 527.96,274.6094 560.68,274.6094 " fill="none" id="User-Playlist" style="stroke:#181818;stroke-width:1.0;"/><line style="stroke:#181818;stroke-width:1.0;" x1="514.5" x2="522.5" y1="163.8794" y2="163.8794"/><line style="stroke:#181818;stroke-width:1.0;" x1="514.5" x2="522.5" y1="166.8794" y2="166.8794"/><line style="stroke:#181818;stroke-width:1.0;" x1="518.5" x2="518.5" y1="167.8794" y2="159.8794"/><line style="stroke:#181818;stroke-width:1.0;" x1="570.68" x2="578.68" y1="274.6094" y2="268.6094"/><line style="stroke:#181818;stroke-width:1.0;" x1="570.68" x2="578.68" y1="274.6094" y2="280.6094"/><line style="stroke:#181818;stroke-width:1.0;" x1="570.68" x2="578.68" y1="274.6094" y2="274.6094"/><ellipse cx="564.68" cy="274.6094" fill="none" rx="4" ry="4" style="stroke:#181818;stroke-width:1.0;"/></g><!--link Playlist to Movielist--><g id="link_Playlist_Movielist"><path codeLine="76" d="M613.5,347.0494 C613.5,372.6194 613.5,377.9094 613.5,403.4394 " fill="none" id="Playlist-Movielist" style="stroke:#181818;stroke-width:1.0;"/><line style="stroke:#181818;stroke-width:1.0;" x1="609.5" x2="617.5" y1="343.0494" y2="343.0494"/><line style="stroke:#181818;stroke-width:1.0;" x1="609.5" x2="617.5" y1="346.0494" y2="346.0494"/><line style="stroke:#181818;stroke-width:1.0;" x1="613.5" x2="613.5" y1="347.0494" y2="339.0494"/><line style="stroke:#181818;stroke-width:1.0;" x1="613.5" x2="619.5" y1="413.4394" y2="421.4394"/><line style="stroke:#181818;stroke-width:1.0;" x1="613.5" x2="607.5" y1="413.4394" y2="421.4394"/><line style="stroke:#181818;stroke-width:1.0;" x1="613.5" x2="613.5" y1="413.4394" y2="421.4394"/><ellipse cx="613.5" cy="407.4394" fill="none" rx="4" ry="4" style="stroke:#181818;stroke-width:1.0;"/></g><!--link Playlist to PlaylistDetail--><g id="link_Playlist_PlaylistDetail"><path codeLine="77" d="M753.5,347.0494 C753.5,372.6194 753.5,380.9094 753.5,406.4394 " fill="none" id="Playlist-PlaylistDetail" style="stroke:#181818;stroke-width:1.0;"/><line style="stroke:#181818;stroke-width:1.0;" x1="749.5" x2="757.5" y1="343.0494" y2="343.0494"/><line style="stroke:#181818;stroke-width:1.0;" x1="749.5" x2="757.5" y1="346.0494" y2="346.0494"/><line style="stroke:#181818;stroke-width:1.0;" x1="753.5" x2="753.5" y1="347.0494" y2="339.0494"/><line style="stroke:#181818;stroke-width:1.0;" x1="753.5" x2="753.5" y1="410.4394" y2="421.4394"/><ellipse cx="753.5" cy="410.4394" fill="none" rx="4" ry="4" style="stroke:#181818;stroke-width:1.0;"/><line style="stroke:#181818;stroke-width:1.0;" x1="757.5" x2="749.5" y1="417.4394" y2="417.4394"/></g><!--link User to ResetToken--><g id="link_User_ResetToken"><path codeLine="79" d="M523,167.6894 C523,202.9894 523,233.6094 523,233.6094 C523,233.6094 714.67,233.6094 844.24,233.6094 " fill="none" id="User-ResetToken" style="stroke:#181818;stroke-width:1.0;"/><line style="stroke:#181818;stroke-width:1.0;" x1="519" x2="527" y1="163.6894" y2="163.6894"/><line style="stroke:#181818;stroke-width:1.0;" x1="519" x2="527" y1="166.6894" y2="166.6894"/><line style="stroke:#181818;stroke-width:1.0;" x1="523" x2="523" y1="167.6894" y2="159.6894"/><line style="stroke:#181818;stroke-width:1.0;" x1="848.24" x2="859.24" y1="233.6094" y2="233.6094"/><ellipse cx="848.24" cy="233.6094" fill="none" rx="4" ry="4" style="stroke:#181818;stroke-width:1.0;"/><line style="stroke:#181818;stroke-width:1.0;" x1="855.24" x2="855.24" y1="229.6094" y2="237.6094"/></g><!--link Genre to User--><!--link UserDislikedGenre to WatchHistory--><!--link WatchHistory to Playlist--><!--link Movielist to PlaylistDetail--><rect fill="#DDDDDD" height="80.4375" id="_legend" rx="7.5" ry="7.5" style="stroke:#000000;stroke-width:1.0;" width="121" x="467.75" y="536.0469"/><ellipse cx="478.25" cy="551.1563" fill="#000000" rx="2.5" ry="2.5" style="stroke:#000000;stroke-width:0.0;"/><text fill="#000000" font-family="sans-serif" font-size="14" lengthAdjust="spacing" textLength="79" x="484.75" y="555.5801">= NOT NULL</text><text fill="#000000" font-family="sans-serif" font-size="14" lengthAdjust="spacing" textLength="110" x="472.75" y="573.1895">PK = Primary Key</text><text fill="#000000" font-family="sans-serif" font-size="14" lengthAdjust="spacing" textLength="111" x="472.75" y="590.7988">FK = Foreign Key</text><text fill="#000000" font-family="sans-serif" font-size="14" lengthAdjust="spacing" textLength="80" x="472.75" y="608.4082">UQ = Unique</text><!--SRC=[dLNVRzCm47xtNt7Q4qoBX93A0ngJ2crPrP_h6f10A7BZ8x6QsC7nDiBA_uxZf6cIhgteI-Ix-tpt-VoTexcE42RoaUTVoS21_W9wd0QAneI4d27uNFaH4YqJq19MKciP0-CAVSsb82HTSv5GWuU82zHPWY2L3cKju4SqJRjQAxvwq3ZqfRZdVn3Ur21fI9byuYA0dpHAiHOHac6A2Rphr9oAYdNf92WqrnbSV4QXy09e2dO5pmJW4e9yxN46x-5BT_7fjhjuzRRJUGtNr_FHpOs1E8xv52X1OspXoDzT0JT5PVFdYpBzWraMsLrts6jbBS8lP3KuzyxYBW5ZogCZySJqxaagTe9OZwSHNoFRTM7FMr8-phPncC6e976uYnPIu_ALQZ-yvQcMAhCqwewIGLXOtlypqJ5RUN6krtqoTHRpY6QHgM8PR8soUbAQtZcDg3QVq8gTgOf1PPsyWXV9dNdu7ceZhKOB2jVnHbp1e4Q95JjQrG1y-PZtAAO1UWdLuH4-MmLxoWoozhHSeqWjhKNkMERsETgyWcf8RCvZG_OxuIhhKPtVsN8uwTylkvFvyjisTPxtusmsxdUdENCxu9kDuyZd_J4YnJ0T33TsrzNV26nlX91AdcMa4aihicdTOhtGfjPAKX9qlfltcw7ueNWGQiSo9VkFGXlMODmOtZQoEi9EteSWMyOHcfU4bNyHs_mFC9qjOUgEnyQSZumzLqPLfjm8C-CQvAw1LCW3KRhSE-Do1V_rW4PZhCX9_W40]--></g></svg>